<svg width="190" height="190" viewBox="0 0 190 190" fill="none" xmlns="http://www.w3.org/2000/svg">
<circle cx="95" cy="95" r="95" fill="#EEEEEE"/>
<path d="M190 94.905C190 42.5125 147.44 0 95 0C42.56 0 0 42.5125 0 94.905C0 123.761 13.11 149.768 33.63 167.224C33.82 167.414 34.01 167.414 34.01 167.604C35.72 168.934 37.43 170.264 39.33 171.594C40.28 172.164 41.04 172.912 41.99 173.672C57.6896 184.316 76.2222 190.004 95.19 190C114.158 190.004 132.69 184.316 148.39 173.672C149.34 173.102 150.1 172.354 151.05 171.772C152.76 170.454 154.66 169.124 156.37 167.794C156.56 167.604 156.75 167.604 156.75 167.414C176.89 149.756 190 123.761 190 94.905ZM95 178.042C77.14 178.042 60.8 172.342 47.31 162.854C47.5 161.334 47.88 159.826 48.26 158.306C49.3921 154.186 51.0526 150.231 53.2 146.538C55.29 142.928 57.76 139.697 60.8 136.848C63.65 133.997 67.07 131.349 70.49 129.259C74.1 127.169 77.9 125.649 82.08 124.509C86.2925 123.374 90.6372 122.803 95 122.811C107.951 122.72 120.427 127.688 129.77 136.658C134.14 141.028 137.56 146.158 140.03 152.036C141.36 155.456 142.31 159.066 142.88 162.854C128.858 172.712 112.141 178.015 95 178.042ZM65.93 90.1669C64.2559 86.3339 63.414 82.1893 63.46 78.0069C63.46 73.8387 64.22 69.6588 65.93 65.8587C67.64 62.0588 69.92 58.6506 72.77 55.8006C75.62 52.9506 79.04 50.6825 82.84 48.9725C86.64 47.2625 90.82 46.5025 95 46.5025C99.37 46.5025 103.36 47.2625 107.16 48.9725C110.96 50.6825 114.38 52.9625 117.23 55.8006C120.08 58.6506 122.36 62.0706 124.07 65.8587C125.78 69.6588 126.54 73.8387 126.54 78.0069C126.54 82.3769 125.78 86.3669 124.07 90.155C122.42 93.8988 120.102 97.311 117.23 100.225C114.315 103.093 110.903 105.406 107.16 107.053C99.3086 110.28 90.5014 110.28 82.65 107.053C78.9071 105.406 75.495 103.093 72.58 100.225C69.704 97.3535 67.4416 93.9275 65.93 90.155V90.1669ZM154.09 153.176C154.09 152.796 153.9 152.606 153.9 152.226C152.031 146.281 149.277 140.653 145.73 135.529C142.18 130.368 137.816 125.817 132.81 122.051C128.987 119.175 124.842 116.752 120.46 114.831C122.454 113.516 124.301 111.991 125.97 110.283C128.803 107.487 131.29 104.361 133.38 100.973C137.588 94.0596 139.761 86.0996 139.65 78.0069C139.709 72.0161 138.545 66.0763 136.23 60.5506C133.944 55.2263 130.654 50.3922 126.54 46.3125C122.432 42.2754 117.597 39.052 112.29 36.8125C106.755 34.5015 100.808 33.3419 94.81 33.4044C88.8116 33.3457 82.864 34.5094 77.33 36.8244C71.9774 39.0591 67.1307 42.3508 63.08 46.5025C59.043 50.6063 55.8196 55.4375 53.58 60.7406C51.265 66.2663 50.1012 72.2061 50.16 78.1969C50.16 82.3769 50.73 86.3669 51.87 90.155C53.01 94.145 54.53 97.755 56.62 101.163C58.52 104.583 61.18 107.623 64.03 110.473C65.74 112.183 67.64 113.691 69.73 115.021C65.3343 116.993 61.1885 119.481 57.38 122.431C52.44 126.231 48.07 130.779 44.46 135.719C40.8768 140.821 38.1197 146.456 36.29 152.416C36.1 152.796 36.1 153.176 36.1 153.366C21.09 138.178 11.78 117.681 11.78 94.905C11.78 49.1625 49.21 11.7681 95 11.7681C140.79 11.7681 178.22 49.1625 178.22 94.905C178.195 116.755 169.519 137.705 154.09 153.176Z" fill="black" fill-opacity="0.3"/>
</svg>
