<svg width="48" height="60" viewBox="0 0 48 60" fill="none" xmlns="http://www.w3.org/2000/svg">
<path fill-rule="evenodd" clip-rule="evenodd" d="M12 4C10.4087 4 8.88258 4.63214 7.75736 5.75736C6.63214 6.88258 6 8.4087 6 10V38C6 39.5913 6.63214 41.1174 7.75736 42.2426C8.88258 43.3679 10.4087 44 12 44H36C37.5913 44 39.1174 43.3679 40.2426 42.2426C41.3679 41.1174 42 39.5913 42 38V18C42 14.287 40.525 10.726 37.8995 8.1005C35.274 5.475 31.713 4 28 4H12ZM12 8H26V18H38V38C38 38.5304 37.7893 39.0391 37.4142 39.4142C37.0391 39.7893 36.5304 40 36 40H12C11.4696 40 10.9609 39.7893 10.5858 39.4142C10.2107 39.0391 10 38.5304 10 38V10C10 9.46957 10.2107 8.96086 10.5858 8.58579C10.9609 8.21071 11.4696 8 12 8ZM30 8.2C31.572 8.52204 33.0436 9.21697 34.291 10.2263C35.5383 11.2356 36.525 12.5298 37.168 14H30V8.2Z" fill="black"/>
<path d="M22 30V26H18V22H22V18H26V22H30V26H26V30H22Z" fill="black"/>
</svg>
