<svg width="51" height="51" viewBox="0 0 51 51" fill="none" xmlns="http://www.w3.org/2000/svg">
<path d="M46.1931 21.6342H44.515V21.5478H25.765V29.8811H37.5389C35.8212 34.7321 31.2056 38.2144 25.765 38.2144C18.8618 38.2144 13.265 32.6176 13.265 25.7144C13.265 18.8113 18.8618 13.2144 25.765 13.2144C28.9514 13.2144 31.8504 14.4165 34.0577 16.3801L39.9504 10.4874C36.2296 7.01965 31.2525 4.8811 25.765 4.8811C14.2598 4.8811 4.93164 14.2092 4.93164 25.7144C4.93164 37.2196 14.2598 46.5478 25.765 46.5478C37.2702 46.5478 46.5983 37.2196 46.5983 25.7144C46.5983 24.3176 46.4546 22.954 46.1931 21.6342Z" fill="#FFC107"/>
<path d="M7.3335 16.0176L14.1783 21.0374C16.0304 16.4519 20.5158 13.2144 25.7647 13.2144C28.9512 13.2144 31.8502 14.4165 34.0575 16.3801L39.9502 10.4874C36.2293 7.01964 31.2522 4.8811 25.7647 4.8811C17.7627 4.8811 10.8231 9.39881 7.3335 16.0176Z" fill="#FF3D00"/>
<path d="M25.7646 46.5477C31.1459 46.5477 36.0355 44.4883 39.7324 41.1393L33.2844 35.6831C31.1225 37.3272 28.4807 38.2165 25.7646 38.2143C20.3459 38.2143 15.7449 34.7591 14.0115 29.9373L7.21777 35.1716C10.6657 41.9185 17.6678 46.5477 25.7646 46.5477Z" fill="#4CAF50"/>
<path d="M46.1928 21.6341H44.5146V21.5476H25.7646V29.8809H37.5386C36.7169 32.1897 35.2369 34.2072 33.2813 35.6841L33.2844 35.682L39.7324 41.1382C39.2761 41.5528 46.598 36.1309 46.598 25.7143C46.598 24.3174 46.4542 22.9539 46.1928 21.6341Z" fill="#1976D2"/>
</svg>
