<svg width="1067" height="375" viewBox="0 0 1067 375" fill="none" xmlns="http://www.w3.org/2000/svg">
<path d="M249.516 145.087C178.016 51.0873 90.0001 136 5.00002 19.5C-10.2676 -1.42557 14.6693 -1.99488 65.5 -0.999985C105.268 -0.221612 160.886 0.694381 225.5 -0.999997C261.226 -1.93685 300.672 -1.1505 342 -0.999899C389.128 -0.828158 438.703 -1.20343 488 -0.999997C580.482 -0.61835 671.983 -1.47882 756.5 -1.00031C933.098 -0.0004673 1066.52 -1.00017 1066.52 -1.00017V374.587C1066.52 374.587 1004.52 231.004 921.516 199.587C847.594 171.609 720.016 218.587 720.016 218.587C720.016 218.587 614.516 275.087 513.016 173.587C411.517 72.087 321.016 239.087 249.516 145.087Z" fill="#4ECDC4"/>
</svg>
