<svg width="48" height="48" viewBox="0 0 48 48" fill="none" xmlns="http://www.w3.org/2000/svg">
<path d="M26 6C21.2261 6 16.6477 7.89642 13.2721 11.2721C9.89642 14.6477 8 19.2261 8 24H2L9.78 31.78L9.92 32.06L18 24H12C12 16.26 18.26 10 26 10C33.74 10 40 16.26 40 24C40 31.74 33.74 38 26 38C22.14 38 18.64 36.42 16.12 33.88L13.28 36.72C14.9468 38.396 16.929 39.7255 19.1121 40.6317C21.2953 41.5379 23.6362 42.0029 26 42C30.7739 42 35.3523 40.1036 38.7279 36.7279C42.1036 33.3523 44 28.7739 44 24C44 19.2261 42.1036 14.6477 38.7279 11.2721C35.3523 7.89642 30.7739 6 26 6V6ZM24 16V26L32.5 31.04L34.04 28.48L27 24.3V16H24Z" fill="#484E64"/>
</svg>
