<svg width="49" height="49" viewBox="0 0 49 49" fill="none" xmlns="http://www.w3.org/2000/svg">
<path d="M44.6158 23.7462L26.5033 5.64309L25.2893 4.42902C25.0126 4.15423 24.6385 4 24.2486 4C23.8587 4 23.4846 4.15423 23.208 4.42902L3.88144 23.7462C3.598 24.0286 3.37398 24.3648 3.22263 24.7352C3.07127 25.1055 2.99564 25.5024 3.00019 25.9025C3.01894 27.5525 4.39238 28.8696 6.04238 28.8696H8.03457V44.1368H40.4627V28.8696H42.4971C43.2986 28.8696 44.0533 28.5556 44.6205 27.9884C44.8998 27.71 45.1211 27.379 45.2715 27.0145C45.422 26.65 45.4987 26.2593 45.4971 25.865C45.4971 25.0681 45.183 24.3134 44.6158 23.7462ZM26.8736 40.7618H21.6236V31.1993H26.8736V40.7618ZM37.0877 25.4946V40.7618H29.8736V30.0743C29.8736 29.0384 29.0346 28.1993 27.9986 28.1993H20.4986C19.4627 28.1993 18.6236 29.0384 18.6236 30.0743V40.7618H11.4096V25.4946H6.90957L24.2533 8.16496L25.3361 9.24777L41.5924 25.4946H37.0877Z" fill="#484E64"/>
</svg>
