<svg width="44" height="48" viewBox="0 0 44 48" fill="none" xmlns="http://www.w3.org/2000/svg">
<path fill-rule="evenodd" clip-rule="evenodd" d="M14.8494 0C11.8455 0 9.38455 2.4648 9.38455 5.46864C9.38455 6.8856 9.94663 8.17104 10.8414 9.1464L6.35431 18.2016C6.19207 18.1867 6.03511 18.1526 5.86903 18.1526C2.86519 18.1526 0.400391 20.6136 0.400391 23.6174C0.400391 26.6213 2.86519 29.0861 5.86903 29.0861C7.76983 29.0861 9.44983 28.0954 10.4305 26.6093L32.8321 29.8426C33.4143 32.2344 35.5695 34.0349 38.1318 34.0349C41.1356 34.0349 43.6004 31.5744 43.6004 28.5701C43.6004 25.6603 41.282 23.2718 38.4068 23.1245L35.463 13.9406C36.7225 12.936 37.5514 11.4082 37.5514 9.68448C37.5514 6.68064 35.0871 4.21488 32.0833 4.21488C30.1801 4.21488 28.4986 5.20608 27.5175 6.69552L20.2426 4.7088C19.8658 2.06304 17.593 0 14.8494 0ZM14.8494 2.77008C16.3566 2.77008 17.5518 3.96144 17.5518 5.46864C17.5518 6.97584 16.3566 8.16768 14.8494 8.16768C13.3422 8.16768 12.1546 6.97536 12.1546 5.46864C12.1546 3.96144 13.3422 2.77008 14.8494 2.77008V2.77008ZM32.0833 6.98544C33.5905 6.98544 34.7785 8.17728 34.7785 9.68448C34.7785 11.1917 33.5905 12.3821 32.0833 12.3821C30.5761 12.3821 29.3814 11.1917 29.3814 9.68448C29.3814 8.17728 30.5766 6.98544 32.0833 6.98544ZM19.5274 8.24976L26.6636 10.2034C26.93 12.9586 29.246 15.1397 32.0646 15.1493L34.9436 24.1517C34.1996 24.6922 33.6135 25.4179 33.2127 26.2517L11.281 23.087C11.1481 21.7622 10.5591 20.568 9.64423 19.6886L14.0175 10.8542C14.2911 10.8974 14.5638 10.9378 14.8494 10.9378C16.8361 10.9378 18.5689 9.85008 19.5274 8.24976V8.24976ZM5.86903 20.9184C7.37623 20.9184 8.57143 22.1102 8.57143 23.6174C8.57386 23.973 8.50561 24.3255 8.37065 24.6544C8.2357 24.9833 8.03673 25.2822 7.78529 25.5336C7.53386 25.7849 7.23498 25.9839 6.90602 26.1188C6.57706 26.2537 6.22457 26.3218 5.86903 26.3194C4.36183 26.3194 3.17047 25.1242 3.17047 23.6174C3.16759 23.2622 3.23543 22.91 3.37002 22.5813C3.50461 22.2525 3.70327 21.9539 3.95442 21.7027C4.20557 21.4515 4.5042 21.2528 4.83291 21.1181C5.16161 20.9835 5.51383 20.9156 5.86903 20.9184V20.9184ZM38.1318 25.8686C39.639 25.8686 40.8303 27.0634 40.8303 28.5701C40.8303 30.0773 39.639 31.2619 38.1318 31.2619C36.6246 31.2619 35.4294 30.0773 35.4294 28.5701C35.427 28.2146 35.4953 27.8622 35.6303 27.5333C35.7653 27.2044 35.9642 26.9056 36.2157 26.6543C36.4671 26.4029 36.7659 26.2041 37.0949 26.0692C37.4238 25.9343 37.7763 25.8662 38.1318 25.8686ZM0.400391 36.48V48H43.6004V36.48H40.5908V45.0701H36.901V38.9635H33.8914V45.0701H30.2046V38.9635H27.1959V45.0701H23.5047V36.48H20.4956V45.0701H16.8044V38.9635H13.7962V45.0701H10.1094V38.9635H7.09975V45.0701H3.40999V36.48H0.400391Z" fill="black"/>
</svg>
