<svg width="48" height="48" viewBox="0 0 48 48" fill="none" xmlns="http://www.w3.org/2000/svg">
<path fill-rule="evenodd" clip-rule="evenodd" d="M47.4239 26.724L43.0136 21.63C42.7215 21.3244 42.328 21.1531 41.918 21.1531C41.5081 21.1531 41.1146 21.3244 40.8225 21.63L36.4065 26.724C36.2624 26.8755 36.148 27.0558 36.0699 27.2546C35.9919 27.4533 35.9517 27.6666 35.9517 27.882C35.9517 28.0974 35.9919 28.3106 36.0699 28.5094C36.148 28.7081 36.2624 28.8885 36.4065 29.04H40.0602C39.3767 31.768 38.0276 34.2561 36.1491 36.2525C34.2705 38.249 31.9292 39.6831 29.3618 40.41C26.3615 41.2439 23.1927 41.0817 20.2817 39.9453C17.3706 38.8088 14.8569 36.7525 13.0785 34.053L9.99805 36.306C12.2171 39.6744 15.3538 42.24 18.9863 43.6575C22.6187 45.0751 26.5727 45.2766 30.3162 44.235C33.6829 43.2865 36.7359 41.3639 39.1352 38.6812C41.5345 35.9985 43.186 32.6609 43.9058 29.04H47.4211C47.5651 28.8885 47.6794 28.7082 47.7575 28.5096C47.8356 28.311 47.8759 28.0979 47.8762 27.8826C47.8764 27.6673 47.8366 27.4541 47.759 27.2553C47.6814 27.0564 47.5675 26.8759 47.4239 26.724V26.724Z" fill="black" fill-opacity="0.2"/>
<path fill-rule="evenodd" clip-rule="evenodd" d="M15.4596 24.0627C15.6037 23.9112 15.7181 23.7308 15.7962 23.5321C15.8742 23.3333 15.9144 23.1201 15.9144 22.9047C15.9144 22.6893 15.8742 22.476 15.7962 22.2773C15.7181 22.0785 15.6037 21.8982 15.4596 21.7467H11.3457C12.0456 19.0531 13.3965 16.6008 15.2644 14.6336C17.1322 12.6664 19.452 11.2526 21.9932 10.5327C24.9937 9.69784 28.1629 9.86021 31.0739 10.9979C33.9848 12.1356 36.4976 14.194 38.2737 16.8957L41.357 14.6397C39.1373 11.2694 35.9994 8.70231 32.3654 7.28369C28.7315 5.86507 24.7757 5.663 21.0304 6.70468C17.6896 7.64881 14.6578 9.55173 12.2673 12.2049C9.87671 14.8582 8.21959 18.1593 7.47747 21.7467H3.3777C3.2336 21.8982 3.1192 22.0785 3.04113 22.2773C2.96305 22.476 2.92285 22.6893 2.92285 22.9047C2.92285 23.1201 2.96305 23.3333 3.04113 23.5321C3.1192 23.7308 3.2336 23.9112 3.3777 24.0627L8.00264 28.9737C8.29474 29.2793 8.68824 29.4506 9.09817 29.4506C9.50811 29.4506 9.9016 29.2793 10.1937 28.9737L15.4596 24.0627Z" fill="black" fill-opacity="0.2"/>
</svg>
