<svg width="71" height="68" viewBox="0 0 71 68" fill="none" xmlns="http://www.w3.org/2000/svg">
<path fill-rule="evenodd" clip-rule="evenodd" d="M69.2971 37.4736L62.8526 30.3306C62.4257 29.9021 61.8507 29.6619 61.2517 29.6619C60.6527 29.6619 60.0777 29.9021 59.6509 30.3306L53.1981 37.4736C52.9876 37.686 52.8204 37.9389 52.7063 38.2176C52.5922 38.4964 52.5335 38.7954 52.5335 39.0974C52.5335 39.3994 52.5922 39.6985 52.7063 39.9772C52.8204 40.2559 52.9876 40.5088 53.1981 40.7212H58.5369C57.5383 44.5466 55.5669 48.0354 52.8219 50.835C50.077 53.6345 46.6558 55.6455 42.9042 56.6647C38.52 57.8341 33.8898 57.6067 29.6361 56.0131C25.3824 54.4195 21.7093 51.5361 19.1106 47.7507L14.6094 50.9099C17.8519 55.6333 22.4353 59.2308 27.7432 61.2186C33.0511 63.2063 38.8287 63.4889 44.2988 62.0283C49.2184 60.6984 53.6794 58.0024 57.1854 54.2405C60.6913 50.4787 63.1045 45.7986 64.1563 40.7212H69.2929C69.5033 40.5088 69.6703 40.256 69.7845 39.9775C69.8986 39.699 69.9575 39.4002 69.9579 39.0983C69.9583 38.7964 69.9001 38.4975 69.7867 38.2186C69.6733 37.9398 69.5069 37.6866 69.2971 37.4736Z" fill="#484E64"/>
<path fill-rule="evenodd" clip-rule="evenodd" d="M22.5895 33.7419C22.8001 33.5295 22.9672 33.2766 23.0813 32.9979C23.1954 32.7192 23.2542 32.4202 23.2542 32.1181C23.2542 31.8161 23.1954 31.5171 23.0813 31.2384C22.9672 30.9596 22.8001 30.7068 22.5895 30.4943H16.5782C17.6009 26.7172 19.5749 23.2786 22.3043 20.5201C25.0337 17.7616 28.4233 15.7791 32.1367 14.7696C36.521 13.5989 41.152 13.8266 45.4055 15.4219C49.6591 17.0173 53.3308 19.9036 55.9261 23.6921L60.4315 20.5286C57.1881 15.8027 52.6029 12.203 47.2928 10.2137C41.9827 8.22445 36.2025 7.94111 30.7298 9.4018C25.8481 10.7257 21.418 13.3941 17.9248 17.1145C14.4317 20.835 12.0102 25.464 10.9258 30.4943H4.93515C4.72458 30.7068 4.55742 30.9596 4.44333 31.2384C4.32925 31.5171 4.27051 31.8161 4.27051 32.1181C4.27051 32.4202 4.32925 32.7192 4.44333 32.9979C4.55742 33.2766 4.72458 33.5295 4.93515 33.7419L11.6932 40.6284C12.1201 41.0569 12.695 41.2971 13.2941 41.2971C13.8931 41.2971 14.468 41.0569 14.8949 40.6284L22.5895 33.7419Z" fill="#484E64"/>
</svg>
