<svg width="1077" height="580" viewBox="0 0 1077 580" fill="none" xmlns="http://www.w3.org/2000/svg">
<g filter="url(#filter0_d_530_246)">
<rect x="15" y="11" width="1047" height="550" rx="5" fill="white"/>
<path d="M387.577 275.636H392.399L397.043 284.406H397.241L401.885 275.636H406.707L399.28 288.801V296H395.004V288.801L387.577 275.636ZM412.205 296.298C410.66 296.298 409.325 295.97 408.198 295.314C407.077 294.651 406.212 293.73 405.602 292.55C404.993 291.363 404.688 289.988 404.688 288.423C404.688 286.846 404.993 285.467 405.602 284.287C406.212 283.1 407.077 282.179 408.198 281.523C409.325 280.86 410.66 280.528 412.205 280.528C413.749 280.528 415.082 280.86 416.202 281.523C417.329 282.179 418.197 283.1 418.807 284.287C419.417 285.467 419.722 286.846 419.722 288.423C419.722 289.988 419.417 291.363 418.807 292.55C418.197 293.73 417.329 294.651 416.202 295.314C415.082 295.97 413.749 296.298 412.205 296.298ZM412.225 293.017C412.927 293.017 413.514 292.818 413.985 292.42C414.455 292.016 414.81 291.466 415.049 290.77C415.294 290.074 415.416 289.282 415.416 288.393C415.416 287.505 415.294 286.713 415.049 286.017C414.81 285.321 414.455 284.771 413.985 284.366C413.514 283.962 412.927 283.76 412.225 283.76C411.515 283.76 410.919 283.962 410.435 284.366C409.958 284.771 409.596 285.321 409.351 286.017C409.112 286.713 408.993 287.505 408.993 288.393C408.993 289.282 409.112 290.074 409.351 290.77C409.596 291.466 409.958 292.016 410.435 292.42C410.919 292.818 411.515 293.017 412.225 293.017ZM431.794 289.497V280.727H436.03V296H431.963V293.226H431.804C431.459 294.121 430.886 294.84 430.084 295.384C429.288 295.927 428.317 296.199 427.171 296.199C426.15 296.199 425.251 295.967 424.476 295.503C423.7 295.039 423.094 294.379 422.656 293.524C422.225 292.669 422.007 291.645 422 290.452V280.727H426.236V289.696C426.242 290.598 426.484 291.31 426.962 291.834C427.439 292.357 428.079 292.619 428.881 292.619C429.391 292.619 429.868 292.503 430.313 292.271C430.757 292.033 431.115 291.681 431.386 291.217C431.665 290.753 431.801 290.18 431.794 289.497ZM438.942 296V280.727H443.049V283.392H443.208C443.486 282.444 443.953 281.728 444.61 281.244C445.266 280.754 446.022 280.509 446.877 280.509C447.089 280.509 447.318 280.522 447.563 280.548C447.808 280.575 448.023 280.611 448.209 280.658V284.416C448.01 284.357 447.735 284.304 447.384 284.257C447.032 284.211 446.711 284.188 446.419 284.188C445.796 284.188 445.239 284.323 444.749 284.595C444.265 284.86 443.88 285.232 443.595 285.709C443.317 286.186 443.178 286.736 443.178 287.359V296H438.942ZM456.007 296V275.636H464.16C465.659 275.636 466.908 275.858 467.909 276.303C468.91 276.747 469.662 277.363 470.166 278.152C470.67 278.934 470.922 279.836 470.922 280.857C470.922 281.652 470.763 282.351 470.445 282.955C470.126 283.551 469.689 284.042 469.132 284.426C468.582 284.804 467.952 285.072 467.243 285.232V285.43C468.018 285.464 468.744 285.682 469.42 286.087C470.103 286.491 470.657 287.058 471.081 287.787C471.505 288.509 471.717 289.371 471.717 290.372C471.717 291.453 471.449 292.417 470.912 293.266C470.382 294.107 469.596 294.774 468.555 295.264C467.515 295.755 466.232 296 464.707 296H456.007ZM460.312 292.48H463.822C465.022 292.48 465.897 292.251 466.447 291.794C466.998 291.33 467.273 290.714 467.273 289.945C467.273 289.381 467.137 288.884 466.865 288.453C466.593 288.022 466.205 287.684 465.702 287.439C465.205 287.194 464.611 287.071 463.922 287.071H460.312V292.48ZM460.312 284.158H463.504C464.094 284.158 464.618 284.055 465.075 283.849C465.539 283.637 465.904 283.339 466.169 282.955C466.441 282.57 466.577 282.109 466.577 281.572C466.577 280.837 466.315 280.243 465.791 279.793C465.274 279.342 464.538 279.116 463.584 279.116H460.312V284.158ZM483.757 289.497V280.727H487.993V296H483.926V293.226H483.767C483.423 294.121 482.849 294.84 482.047 295.384C481.252 295.927 480.28 296.199 479.134 296.199C478.113 296.199 477.215 295.967 476.439 295.503C475.664 295.039 475.057 294.379 474.619 293.524C474.189 292.669 473.97 291.645 473.963 290.452V280.727H478.199V289.696C478.206 290.598 478.448 291.31 478.925 291.834C479.402 292.357 480.042 292.619 480.844 292.619C481.354 292.619 481.832 292.503 482.276 292.271C482.72 292.033 483.078 291.681 483.35 291.217C483.628 290.753 483.764 290.18 483.757 289.497ZM503.613 285.082L499.735 285.321C499.668 284.99 499.526 284.691 499.307 284.426C499.088 284.154 498.8 283.939 498.442 283.78C498.091 283.614 497.67 283.531 497.179 283.531C496.523 283.531 495.97 283.67 495.519 283.949C495.068 284.221 494.843 284.585 494.843 285.043C494.843 285.407 494.989 285.715 495.28 285.967C495.572 286.219 496.072 286.421 496.782 286.574L499.546 287.131C501.031 287.436 502.138 287.926 502.867 288.602C503.596 289.278 503.961 290.167 503.961 291.267C503.961 292.268 503.666 293.146 503.076 293.902C502.492 294.658 501.69 295.248 500.669 295.672C499.655 296.089 498.485 296.298 497.159 296.298C495.138 296.298 493.527 295.877 492.327 295.036C491.134 294.187 490.435 293.034 490.229 291.575L494.395 291.357C494.521 291.973 494.826 292.444 495.31 292.768C495.794 293.087 496.414 293.246 497.169 293.246C497.912 293.246 498.508 293.103 498.959 292.818C499.417 292.527 499.649 292.152 499.655 291.695C499.649 291.31 499.486 290.995 499.168 290.75C498.85 290.498 498.359 290.306 497.696 290.173L495.052 289.646C493.56 289.348 492.45 288.831 491.721 288.095C490.998 287.359 490.637 286.421 490.637 285.281C490.637 284.3 490.902 283.455 491.432 282.746C491.969 282.036 492.722 281.49 493.689 281.105C494.664 280.721 495.804 280.528 497.11 280.528C499.039 280.528 500.557 280.936 501.664 281.751C502.777 282.567 503.427 283.677 503.613 285.082ZM506.152 296V280.727H510.388V296H506.152ZM508.28 278.759C507.65 278.759 507.11 278.55 506.659 278.132C506.215 277.708 505.993 277.201 505.993 276.611C505.993 276.027 506.215 275.527 506.659 275.109C507.11 274.685 507.65 274.473 508.28 274.473C508.909 274.473 509.446 274.685 509.891 275.109C510.341 275.527 510.567 276.027 510.567 276.611C510.567 277.201 510.341 277.708 509.891 278.132C509.446 278.55 508.909 278.759 508.28 278.759ZM517.541 287.17V296H513.305V280.727H517.342V283.422H517.521C517.859 282.534 518.426 281.831 519.221 281.314C520.016 280.79 520.981 280.528 522.114 280.528C523.175 280.528 524.1 280.76 524.889 281.224C525.677 281.688 526.291 282.351 526.728 283.213C527.166 284.068 527.384 285.089 527.384 286.276V296H523.149V287.031C523.155 286.097 522.917 285.367 522.433 284.844C521.949 284.313 521.283 284.048 520.434 284.048C519.864 284.048 519.36 284.171 518.923 284.416C518.492 284.661 518.154 285.019 517.908 285.49C517.67 285.954 517.547 286.514 517.541 287.17ZM537.207 296.298C535.636 296.298 534.284 295.98 533.15 295.344C532.023 294.701 531.155 293.793 530.545 292.619C529.935 291.439 529.63 290.044 529.63 288.433C529.63 286.862 529.935 285.483 530.545 284.297C531.155 283.11 532.013 282.186 533.12 281.523C534.234 280.86 535.54 280.528 537.038 280.528C538.046 280.528 538.983 280.691 539.852 281.016C540.727 281.334 541.489 281.814 542.139 282.457C542.795 283.1 543.305 283.909 543.67 284.884C544.035 285.851 544.217 286.985 544.217 288.284V289.447H531.321V286.822H540.23C540.23 286.213 540.097 285.672 539.832 285.202C539.567 284.731 539.199 284.363 538.728 284.098C538.264 283.826 537.724 283.69 537.108 283.69C536.465 283.69 535.894 283.839 535.397 284.138C534.907 284.429 534.522 284.824 534.244 285.321C533.966 285.812 533.823 286.358 533.816 286.962V289.457C533.816 290.213 533.956 290.866 534.234 291.416C534.519 291.966 534.92 292.391 535.437 292.689C535.954 292.987 536.567 293.136 537.277 293.136C537.747 293.136 538.178 293.07 538.569 292.938C538.96 292.805 539.295 292.606 539.573 292.341C539.852 292.076 540.064 291.751 540.21 291.366L544.127 291.625C543.929 292.566 543.521 293.388 542.904 294.091C542.295 294.787 541.506 295.33 540.538 295.722C539.577 296.106 538.466 296.298 537.207 296.298ZM559.213 285.082L555.335 285.321C555.268 284.99 555.126 284.691 554.907 284.426C554.688 284.154 554.4 283.939 554.042 283.78C553.691 283.614 553.27 283.531 552.779 283.531C552.123 283.531 551.57 283.67 551.119 283.949C550.668 284.221 550.443 284.585 550.443 285.043C550.443 285.407 550.588 285.715 550.88 285.967C551.172 286.219 551.672 286.421 552.382 286.574L555.146 287.131C556.631 287.436 557.738 287.926 558.467 288.602C559.196 289.278 559.561 290.167 559.561 291.267C559.561 292.268 559.266 293.146 558.676 293.902C558.092 294.658 557.29 295.248 556.269 295.672C555.255 296.089 554.085 296.298 552.759 296.298C550.738 296.298 549.127 295.877 547.927 295.036C546.734 294.187 546.034 293.034 545.829 291.575L549.995 291.357C550.121 291.973 550.426 292.444 550.91 292.768C551.394 293.087 552.014 293.246 552.769 293.246C553.512 293.246 554.108 293.103 554.559 292.818C555.016 292.527 555.248 292.152 555.255 291.695C555.248 291.31 555.086 290.995 554.768 290.75C554.45 290.498 553.959 290.306 553.296 290.173L550.651 289.646C549.16 289.348 548.05 288.831 547.32 288.095C546.598 287.359 546.237 286.421 546.237 285.281C546.237 284.3 546.502 283.455 547.032 282.746C547.569 282.036 548.321 281.49 549.289 281.105C550.264 280.721 551.404 280.528 552.71 280.528C554.639 280.528 556.157 280.936 557.264 281.751C558.377 282.567 559.027 283.677 559.213 285.082ZM574.459 285.082L570.581 285.321C570.515 284.99 570.373 284.691 570.154 284.426C569.935 284.154 569.647 283.939 569.289 283.78C568.937 283.614 568.516 283.531 568.026 283.531C567.37 283.531 566.816 283.67 566.365 283.949C565.915 284.221 565.689 284.585 565.689 285.043C565.689 285.407 565.835 285.715 566.127 285.967C566.418 286.219 566.919 286.421 567.628 286.574L570.392 287.131C571.877 287.436 572.984 287.926 573.713 288.602C574.443 289.278 574.807 290.167 574.807 291.267C574.807 292.268 574.512 293.146 573.922 293.902C573.339 294.658 572.537 295.248 571.516 295.672C570.502 296.089 569.332 296.298 568.006 296.298C565.984 296.298 564.373 295.877 563.174 295.036C561.98 294.187 561.281 293.034 561.076 291.575L565.242 291.357C565.368 291.973 565.673 292.444 566.157 292.768C566.641 293.087 567.26 293.246 568.016 293.246C568.758 293.246 569.355 293.103 569.806 292.818C570.263 292.527 570.495 292.152 570.502 291.695C570.495 291.31 570.333 290.995 570.015 290.75C569.696 290.498 569.206 290.306 568.543 290.173L565.898 289.646C564.407 289.348 563.296 288.831 562.567 288.095C561.845 287.359 561.483 286.421 561.483 285.281C561.483 284.3 561.748 283.455 562.279 282.746C562.816 282.036 563.568 281.49 564.536 281.105C565.51 280.721 566.65 280.528 567.956 280.528C569.885 280.528 571.403 280.936 572.51 281.751C573.624 282.567 574.274 283.677 574.459 285.082ZM583.082 296V275.636H591.117C592.661 275.636 593.977 275.931 595.064 276.521C596.151 277.105 596.98 277.917 597.55 278.957C598.126 279.991 598.415 281.185 598.415 282.537C598.415 283.889 598.123 285.082 597.54 286.116C596.957 287.151 596.111 287.956 595.004 288.533C593.904 289.109 592.572 289.398 591.007 289.398H585.886V285.947H590.311C591.14 285.947 591.823 285.805 592.359 285.52C592.903 285.228 593.307 284.827 593.573 284.317C593.844 283.8 593.98 283.206 593.98 282.537C593.98 281.861 593.844 281.271 593.573 280.767C593.307 280.257 592.903 279.862 592.359 279.584C591.816 279.299 591.126 279.156 590.291 279.156H587.388V296H583.082ZM600.656 296V280.727H604.762V283.392H604.921C605.2 282.444 605.667 281.728 606.323 281.244C606.98 280.754 607.735 280.509 608.59 280.509C608.803 280.509 609.031 280.522 609.277 280.548C609.522 280.575 609.737 280.611 609.923 280.658V284.416C609.724 284.357 609.449 284.304 609.098 284.257C608.746 284.211 608.425 284.188 608.133 284.188C607.51 284.188 606.953 284.323 606.463 284.595C605.979 284.86 605.594 285.232 605.309 285.709C605.031 286.186 604.892 286.736 604.892 287.359V296H600.656ZM617.826 296.298C616.282 296.298 614.946 295.97 613.819 295.314C612.699 294.651 611.834 293.73 611.224 292.55C610.614 291.363 610.309 289.988 610.309 288.423C610.309 286.846 610.614 285.467 611.224 284.287C611.834 283.1 612.699 282.179 613.819 281.523C614.946 280.86 616.282 280.528 617.826 280.528C619.371 280.528 620.703 280.86 621.824 281.523C622.951 282.179 623.819 283.1 624.429 284.287C625.039 285.467 625.344 286.846 625.344 288.423C625.344 289.988 625.039 291.363 624.429 292.55C623.819 293.73 622.951 294.651 621.824 295.314C620.703 295.97 619.371 296.298 617.826 296.298ZM617.846 293.017C618.549 293.017 619.136 292.818 619.606 292.42C620.077 292.016 620.432 291.466 620.67 290.77C620.915 290.074 621.038 289.282 621.038 288.393C621.038 287.505 620.915 286.713 620.67 286.017C620.432 285.321 620.077 284.771 619.606 284.366C619.136 283.962 618.549 283.76 617.846 283.76C617.137 283.76 616.54 283.962 616.057 284.366C615.579 284.771 615.218 285.321 614.973 286.017C614.734 286.713 614.615 287.505 614.615 288.393C614.615 289.282 614.734 290.074 614.973 290.77C615.218 291.466 615.579 292.016 616.057 292.42C616.54 292.818 617.137 293.017 617.846 293.017ZM634.522 296.298C632.958 296.298 631.612 295.967 630.485 295.304C629.365 294.634 628.503 293.706 627.9 292.52C627.304 291.333 627.005 289.968 627.005 288.423C627.005 286.859 627.307 285.487 627.91 284.307C628.52 283.12 629.385 282.196 630.505 281.533C631.626 280.863 632.958 280.528 634.502 280.528C635.835 280.528 637.002 280.77 638.002 281.254C639.003 281.738 639.796 282.418 640.379 283.293C640.962 284.168 641.284 285.195 641.343 286.375H637.346C637.234 285.613 636.935 285 636.451 284.536C635.974 284.065 635.348 283.83 634.572 283.83C633.916 283.83 633.342 284.009 632.852 284.366C632.368 284.718 631.99 285.232 631.718 285.908C631.447 286.584 631.311 287.402 631.311 288.364C631.311 289.338 631.443 290.167 631.708 290.849C631.98 291.532 632.361 292.053 632.852 292.411C633.342 292.768 633.916 292.947 634.572 292.947C635.056 292.947 635.49 292.848 635.875 292.649C636.266 292.45 636.587 292.162 636.839 291.784C637.098 291.4 637.267 290.939 637.346 290.402H641.343C641.277 291.569 640.959 292.596 640.389 293.484C639.825 294.366 639.046 295.055 638.052 295.553C637.058 296.05 635.881 296.298 634.522 296.298ZM650.54 296.298C648.969 296.298 647.616 295.98 646.483 295.344C645.356 294.701 644.488 293.793 643.878 292.619C643.268 291.439 642.963 290.044 642.963 288.433C642.963 286.862 643.268 285.483 643.878 284.297C644.488 283.11 645.346 282.186 646.453 281.523C647.567 280.86 648.872 280.528 650.371 280.528C651.378 280.528 652.316 280.691 653.184 281.016C654.059 281.334 654.822 281.814 655.471 282.457C656.128 283.1 656.638 283.909 657.003 284.884C657.367 285.851 657.55 286.985 657.55 288.284V289.447H644.653V286.822H653.562C653.562 286.213 653.43 285.672 653.165 285.202C652.899 284.731 652.532 284.363 652.061 284.098C651.597 283.826 651.057 283.69 650.44 283.69C649.797 283.69 649.227 283.839 648.73 284.138C648.239 284.429 647.855 284.824 647.577 285.321C647.298 285.812 647.156 286.358 647.149 286.962V289.457C647.149 290.213 647.288 290.866 647.567 291.416C647.852 291.966 648.253 292.391 648.77 292.689C649.287 292.987 649.9 293.136 650.609 293.136C651.08 293.136 651.511 293.07 651.902 292.938C652.293 292.805 652.628 292.606 652.906 292.341C653.184 292.076 653.397 291.751 653.542 291.366L657.46 291.625C657.261 292.566 656.854 293.388 656.237 294.091C655.627 294.787 654.838 295.33 653.871 295.722C652.909 296.106 651.799 296.298 650.54 296.298ZM672.545 285.082L668.667 285.321C668.601 284.99 668.458 284.691 668.24 284.426C668.021 284.154 667.733 283.939 667.375 283.78C667.023 283.614 666.602 283.531 666.112 283.531C665.456 283.531 664.902 283.67 664.451 283.949C664.001 284.221 663.775 284.585 663.775 285.043C663.775 285.407 663.921 285.715 664.213 285.967C664.504 286.219 665.005 286.421 665.714 286.574L668.478 287.131C669.963 287.436 671.07 287.926 671.799 288.602C672.529 289.278 672.893 290.167 672.893 291.267C672.893 292.268 672.598 293.146 672.008 293.902C671.425 294.658 670.623 295.248 669.602 295.672C668.588 296.089 667.418 296.298 666.092 296.298C664.07 296.298 662.459 295.877 661.26 295.036C660.066 294.187 659.367 293.034 659.162 291.575L663.328 291.357C663.454 291.973 663.759 292.444 664.243 292.768C664.726 293.087 665.346 293.246 666.102 293.246C666.844 293.246 667.441 293.103 667.892 292.818C668.349 292.527 668.581 292.152 668.588 291.695C668.581 291.31 668.419 290.995 668.101 290.75C667.782 290.498 667.292 290.306 666.629 290.173L663.984 289.646C662.493 289.348 661.382 288.831 660.653 288.095C659.931 287.359 659.569 286.421 659.569 285.281C659.569 284.3 659.834 283.455 660.365 282.746C660.902 282.036 661.654 281.49 662.622 281.105C663.596 280.721 664.736 280.528 666.042 280.528C667.971 280.528 669.489 280.936 670.596 281.751C671.71 282.567 672.36 283.677 672.545 285.082ZM687.792 285.082L683.914 285.321C683.848 284.99 683.705 284.691 683.486 284.426C683.268 284.154 682.979 283.939 682.621 283.78C682.27 283.614 681.849 283.531 681.359 283.531C680.702 283.531 680.149 283.67 679.698 283.949C679.247 284.221 679.022 284.585 679.022 285.043C679.022 285.407 679.168 285.715 679.459 285.967C679.751 286.219 680.252 286.421 680.961 286.574L683.725 287.131C685.21 287.436 686.317 287.926 687.046 288.602C687.775 289.278 688.14 290.167 688.14 291.267C688.14 292.268 687.845 293.146 687.255 293.902C686.672 294.658 685.869 295.248 684.849 295.672C683.834 296.089 682.664 296.298 681.339 296.298C679.317 296.298 677.706 295.877 676.506 295.036C675.313 294.187 674.614 293.034 674.408 291.575L678.574 291.357C678.7 291.973 679.005 292.444 679.489 292.768C679.973 293.087 680.593 293.246 681.349 293.246C682.091 293.246 682.688 293.103 683.138 292.818C683.596 292.527 683.828 292.152 683.834 291.695C683.828 291.31 683.665 290.995 683.347 290.75C683.029 290.498 682.538 290.306 681.876 290.173L679.231 289.646C677.739 289.348 676.629 288.831 675.9 288.095C675.177 287.359 674.816 286.421 674.816 285.281C674.816 284.3 675.081 283.455 675.611 282.746C676.148 282.036 676.901 281.49 677.869 281.105C678.843 280.721 679.983 280.528 681.289 280.528C683.218 280.528 684.736 280.936 685.843 281.751C686.957 282.567 687.606 283.677 687.792 285.082Z" fill="black" fill-opacity="0.2"/>
</g>
<defs>
<filter id="filter0_d_530_246" x="0" y="0" width="1077" height="580" filterUnits="userSpaceOnUse" color-interpolation-filters="sRGB">
<feFlood flood-opacity="0" result="BackgroundImageFix"/>
<feColorMatrix in="SourceAlpha" type="matrix" values="0 0 0 0 0 0 0 0 0 0 0 0 0 0 0 0 0 0 127 0" result="hardAlpha"/>
<feOffset dy="4"/>
<feGaussianBlur stdDeviation="7.5"/>
<feComposite in2="hardAlpha" operator="out"/>
<feColorMatrix type="matrix" values="0 0 0 0 0 0 0 0 0 0 0 0 0 0 0 0 0 0 0.25 0"/>
<feBlend mode="normal" in2="BackgroundImageFix" result="effect1_dropShadow_530_246"/>
<feBlend mode="normal" in="SourceGraphic" in2="effect1_dropShadow_530_246" result="shape"/>
</filter>
</defs>
</svg>
