<svg width="48" height="48" viewBox="0 0 48 48" fill="none" xmlns="http://www.w3.org/2000/svg">
<path d="M43.3496 29.3296L40.2793 26.7046C40.4246 25.814 40.4996 24.9046 40.4996 23.9953C40.4996 23.0859 40.4246 22.1765 40.2793 21.2859L43.3496 18.6609C43.5812 18.4626 43.7469 18.1986 43.8248 17.9039C43.9027 17.6091 43.889 17.2977 43.7856 17.0109L43.7434 16.889C42.8981 14.5266 41.6324 12.3367 40.0074 10.425L39.9231 10.3265C39.7259 10.0947 39.4632 9.92811 39.1695 9.84861C38.8758 9.76912 38.5649 9.78048 38.2777 9.8812L34.4668 11.2359C33.0606 10.0828 31.4902 9.17339 29.7934 8.53589L29.0574 4.55151C29.0019 4.25171 28.8565 3.9759 28.6405 3.76072C28.4244 3.54554 28.1481 3.40119 27.8481 3.34683L27.7215 3.32339C25.2793 2.88276 22.7106 2.88276 20.2684 3.32339L20.1418 3.34683C19.8418 3.40119 19.5654 3.54554 19.3494 3.76072C19.1334 3.9759 18.988 4.25171 18.9324 4.55151L18.1918 8.55464C16.5085 9.19227 14.9409 10.1012 13.5512 11.2453L9.71212 9.8812C9.42508 9.77968 9.11395 9.76791 8.82006 9.84745C8.52618 9.92699 8.26346 10.0941 8.06681 10.3265L7.98243 10.425C6.35937 12.338 5.09388 14.5276 4.24649 16.889L4.20431 17.0109C3.99337 17.5968 4.16681 18.2531 4.64024 18.6609L7.74806 21.314C7.60274 22.1953 7.53243 23.0953 7.53243 23.9906C7.53243 24.8906 7.60274 25.7906 7.74806 26.6671L4.64024 29.3203C4.40866 29.5185 4.24291 29.7826 4.16504 30.0773C4.08717 30.372 4.10087 30.6835 4.20431 30.9703L4.24649 31.0921C5.09493 33.4546 6.35118 35.6343 7.98243 37.5562L8.06681 37.6546C8.26394 37.8864 8.52667 38.053 8.82038 38.1325C9.11409 38.212 9.42499 38.2007 9.71212 38.1L13.5512 36.7359C14.9481 37.8843 16.509 38.7937 18.1918 39.4265L18.9324 43.4296C18.988 43.7294 19.1334 44.0053 19.3494 44.2204C19.5654 44.4356 19.8418 44.58 20.1418 44.6343L20.2684 44.6578C22.733 45.1007 25.2569 45.1007 27.7215 44.6578L27.8481 44.6343C28.1481 44.58 28.4244 44.4356 28.6405 44.2204C28.8565 44.0053 29.0019 43.7294 29.0574 43.4296L29.7934 39.4453C31.4896 38.8094 33.0687 37.8971 34.4668 36.7453L38.2777 38.1C38.5648 38.2015 38.8759 38.2132 39.1698 38.1337C39.4637 38.0542 39.7264 37.8871 39.9231 37.6546L40.0074 37.5562C41.6387 35.6296 42.8949 33.4546 43.7434 31.0921L43.7856 30.9703C43.9965 30.3937 43.8231 29.7375 43.3496 29.3296ZM36.9512 21.839C37.0684 22.5468 37.1293 23.2734 37.1293 24C37.1293 24.7265 37.0684 25.4531 36.9512 26.1609L36.6418 28.0406L40.1434 31.0359C39.6125 32.2588 38.9425 33.4165 38.1465 34.4859L33.7965 32.9437L32.3246 34.1531C31.2043 35.0718 29.9574 35.7937 28.6074 36.3L26.8215 36.9703L25.9824 41.5171C24.6585 41.6671 23.3219 41.6671 21.9981 41.5171L21.159 36.9609L19.3871 36.2812C18.0512 35.775 16.809 35.0531 15.6981 34.139L14.2262 32.925L9.84806 34.4812C9.05118 33.4078 8.38556 32.25 7.85118 31.0312L11.3902 28.0078L11.0856 26.1328C10.9731 25.4343 10.9121 24.7125 10.9121 24C10.9121 23.2828 10.9684 22.5656 11.0856 21.8671L11.3902 19.9921L7.85118 16.9687C8.38087 15.7453 9.05118 14.5921 9.84806 13.5187L14.2262 15.075L15.6981 13.8609C16.809 12.9468 18.0512 12.225 19.3871 11.7187L21.1637 11.0484L22.0027 6.49214C23.3199 6.34214 24.6652 6.34214 25.9871 6.49214L26.8262 11.039L28.6121 11.7093C29.9574 12.2156 31.209 12.9375 32.3293 13.8562L33.8012 15.0656L38.1512 13.5234C38.9481 14.5968 39.6137 15.7546 40.1481 16.9734L36.6465 19.9687L36.9512 21.839ZM23.9996 15.2812C19.4434 15.2812 15.7496 18.975 15.7496 23.5312C15.7496 28.0875 19.4434 31.7812 23.9996 31.7812C28.5559 31.7812 32.2496 28.0875 32.2496 23.5312C32.2496 18.975 28.5559 15.2812 23.9996 15.2812ZM27.7121 27.2437C27.2252 27.732 26.6465 28.1193 26.0094 28.3831C25.3722 28.647 24.6892 28.7823 23.9996 28.7812C22.5981 28.7812 21.2809 28.2328 20.2871 27.2437C19.7988 26.7568 19.4116 26.1781 19.1477 25.541C18.8838 24.9038 18.7485 24.2208 18.7496 23.5312C18.7496 22.1296 19.2981 20.8125 20.2871 19.8187C21.2809 18.825 22.5981 18.2812 23.9996 18.2812C25.4012 18.2812 26.7184 18.825 27.7121 19.8187C28.2004 20.3056 28.5877 20.8843 28.8515 21.5214C29.1154 22.1586 29.2507 22.8416 29.2496 23.5312C29.2496 24.9328 28.7012 26.25 27.7121 27.2437Z" fill="#484E64"/>
</svg>
