<svg width="70" height="70" viewBox="0 0 70 70" fill="none" xmlns="http://www.w3.org/2000/svg">
<path d="M64.5996 28.1641H47.0996C46.7988 28.1641 46.5527 28.4102 46.5527 28.7109V31.9922C46.5527 32.293 46.7988 32.5391 47.0996 32.5391H64.5996C64.9004 32.5391 65.1465 32.293 65.1465 31.9922V28.7109C65.1465 28.4102 64.9004 28.1641 64.5996 28.1641ZM55.4395 37.4609H47.0996C46.7988 37.4609 46.5527 37.707 46.5527 38.0078V41.2891C46.5527 41.5898 46.7988 41.8359 47.0996 41.8359H55.4395C55.7402 41.8359 55.9863 41.5898 55.9863 41.2891V38.0078C55.9863 37.707 55.7402 37.4609 55.4395 37.4609ZM32.6279 22.0459H29.668C29.2441 22.0459 28.9023 22.3877 28.9023 22.8115V39.7646C28.9023 40.0107 29.0186 40.2363 29.2168 40.3799L39.3955 47.8037C39.7373 48.0498 40.2158 47.9814 40.4619 47.6397L42.2187 45.2402V45.2334C42.4648 44.8916 42.3896 44.4131 42.0479 44.167L33.3867 37.9053V22.8115C33.3936 22.3877 33.0449 22.0459 32.6279 22.0459V22.0459Z" fill="white"/>
<path d="M55.0157 46.0673H51.0645C50.6817 46.0673 50.3194 46.2655 50.1143 46.5936C49.2461 47.9677 48.2344 49.2391 47.0723 50.4013C45.0694 52.4042 42.7383 53.9764 40.1475 55.0702C37.461 56.205 34.6104 56.7792 31.6709 56.7792C28.7247 56.7792 25.8741 56.205 23.1944 55.0702C20.6036 53.9764 18.2725 52.4042 16.2696 50.4013C14.2666 48.3983 12.6944 46.0673 11.6006 43.4764C10.4659 40.7968 9.89165 37.9462 9.89165 34.9999C9.89165 32.0536 10.4659 29.2098 11.6006 26.5233C12.6944 23.9325 14.2666 21.6015 16.2696 19.5985C18.2725 17.5956 20.6036 16.0233 23.1944 14.9296C25.8741 13.7948 28.7315 13.2206 31.6709 13.2206C34.6172 13.2206 37.4678 13.7948 40.1475 14.9296C42.7383 16.0233 45.0694 17.5956 47.0723 19.5985C48.2344 20.7606 49.2461 22.0321 50.1143 23.4061C50.3194 23.7343 50.6817 23.9325 51.0645 23.9325H55.0157C55.4873 23.9325 55.7881 23.4403 55.5762 23.0233C51.1192 14.1571 42.0821 8.39442 31.9922 8.27821C17.2198 8.09364 4.94927 20.1864 4.92192 34.9452C4.89458 49.7313 16.878 61.7284 31.6641 61.7284C41.8838 61.7284 51.0713 55.9452 55.5762 46.9764C55.7881 46.5595 55.4805 46.0673 55.0157 46.0673V46.0673Z" fill="white"/>
</svg>
