<svg width="48" height="48" viewBox="0 0 48 48" fill="none" xmlns="http://www.w3.org/2000/svg">
<path d="M36.9231 42.24C36.9231 41.72 36.7404 41.27 36.375 40.89C36.0096 40.51 35.5769 40.32 35.0769 40.32C34.5769 40.32 34.1442 40.51 33.7788 40.89C33.4135 41.27 33.2308 41.72 33.2308 42.24C33.2308 42.76 33.4135 43.21 33.7788 43.59C34.1442 43.97 34.5769 44.16 35.0769 44.16C35.5769 44.16 36.0096 43.97 36.375 43.59C36.7404 43.21 36.9231 42.76 36.9231 42.24ZM44.3077 42.24C44.3077 41.72 44.125 41.27 43.7596 40.89C43.3942 40.51 42.9615 40.32 42.4615 40.32C41.9615 40.32 41.5288 40.51 41.1635 40.89C40.7981 41.27 40.6154 41.72 40.6154 42.24C40.6154 42.76 40.7981 43.21 41.1635 43.59C41.5288 43.97 41.9615 44.16 42.4615 44.16C42.9615 44.16 43.3942 43.97 43.7596 43.59C44.125 43.21 44.3077 42.76 44.3077 42.24ZM48 35.52V45.12C48 45.92 47.7308 46.6 47.1923 47.16C46.6538 47.72 46 48 45.2308 48H2.76923C2 48 1.34615 47.72 0.807692 47.16C0.269231 46.6 0 45.92 0 45.12V35.52C0 34.72 0.269231 34.04 0.807692 33.48C1.34615 32.92 2 32.64 2.76923 32.64H15.0865C15.4904 33.76 16.1683 34.68 17.1202 35.4C18.0721 36.12 19.1346 36.48 20.3077 36.48H27.6923C28.8654 36.48 29.9279 36.12 30.8798 35.4C31.8317 34.68 32.5096 33.76 32.9135 32.64H45.2308C46 32.64 46.6538 32.92 47.1923 33.48C47.7308 34.04 48 34.72 48 35.52ZM38.625 16.08C38.2981 16.88 37.7308 17.28 36.9231 17.28H29.5385V30.72C29.5385 31.24 29.3558 31.69 28.9904 32.07C28.625 32.45 28.1923 32.64 27.6923 32.64H20.3077C19.8077 32.64 19.375 32.45 19.0096 32.07C18.6442 31.69 18.4615 31.24 18.4615 30.72V17.28H11.0769C10.2692 17.28 9.70192 16.88 9.375 16.08C9.04808 15.3 9.18269 14.61 9.77885 14.01L22.7019 0.57C23.0481 0.19 23.4808 0 24 0C24.5192 0 24.9519 0.19 25.2981 0.57L38.2212 14.01C38.8173 14.61 38.9519 15.3 38.625 16.08Z" fill="white"/>
</svg>
